<?xml version="1.0" standalone="no"?>
<!DOCTYPE svg PUBLIC "-//W3C//DTD SVG 20010904//EN"
 "http://www.w3.org/TR/2001/REC-SVG-20010904/DTD/svg10.dtd">
<svg version="1.0" xmlns="http://www.w3.org/2000/svg"
 width="512.000000pt" height="512.000000pt" viewBox="0 0 512.000000 512.000000"
 preserveAspectRatio="xMidYMid meet">

<g transform="translate(0.000000,512.000000) scale(0.100000,-0.100000)"
fill="#000000" stroke="none">
<path d="M2404 5003 c-158 -147 -380 -386 -389 -420 -4 -16 0 -34 10 -49 18
-28 17 -31 -39 -97 -27 -32 -43 -44 -50 -37 -20 20 -66 11 -93 -17 -14 -16
-65 -88 -114 -161 -354 -533 -437 -1013 -252 -1462 187 -456 574 -710 1083
-710 314 0 565 87 774 269 180 156 307 374 373 638 24 96 27 128 28 278 0 192
-12 266 -73 450 -130 395 -490 896 -945 1317 -102 94 -133 118 -157 118 -23 0
-54 -24 -156 -117z m246 -1400 c7 -173 0 -166 173 -173 l132 -5 3 -60 c6 -109
11 -105 -135 -105 -116 0 -129 -2 -150 -22 -22 -20 -23 -29 -23 -139 0 -65 -3
-124 -6 -133 -9 -23 -159 -23 -168 0 -3 9 -6 68 -6 132 0 105 -2 118 -22 139
-20 22 -29 23 -150 23 -147 0 -142 -4 -136 105 l3 60 131 5 c177 7 174 4 174
161 0 64 3 125 6 134 5 13 20 15 88 13 l81 -3 5 -132z"/>
<path d="M774 2190 c-101 -21 -211 -104 -250 -188 -19 -42 -19 -42 -59 -35
-138 27 -258 -8 -351 -101 -69 -70 -103 -142 -111 -242 -10 -117 50 -248 146
-318 114 -83 502 -316 526 -316 33 0 75 41 75 73 0 14 -8 34 -17 45 -10 11
-121 84 -248 163 -126 78 -247 158 -268 178 -142 134 -35 378 164 375 67 -1 7
32 723 -392 l490 -290 16 -59 c32 -117 95 -194 198 -241 89 -41 152 -39 342 7
918 225 945 232 968 257 12 14 22 36 22 50 0 28 -41 74 -66 74 -9 0 -263 -61
-564 -135 -301 -74 -558 -135 -572 -135 -13 0 -48 12 -76 26 -118 59 -145 208
-54 303 44 46 -8 29 867 280 672 193 724 204 880 190 118 -10 198 -33 312 -89
56 -27 113 -50 127 -50 62 0 88 79 41 126 -34 34 -191 107 -285 133 -41 11
-119 25 -172 31 -173 19 -240 7 -808 -156 -1072 -308 -1000 -283 -1077 -367
l-40 -44 -269 371 c-284 390 -318 429 -414 461 -59 19 -145 26 -196 15z m161
-166 c17 -7 40 -21 52 -31 18 -15 337 -449 390 -530 l18 -28 -37 23 c-21 13
-189 113 -375 223 -367 217 -356 208 -312 270 62 87 166 116 264 73z"/>
<path d="M4215 1600 c-49 -19 -64 -82 -31 -119 28 -30 163 -97 246 -122 65
-18 107 -22 308 -26 l232 -5 0 -393 0 -393 -457 -5 c-376 -3 -474 -7 -546 -21
-48 -9 -353 -91 -677 -181 -325 -90 -627 -169 -672 -176 -141 -21 -298 3 -437
67 -40 19 -334 196 -651 394 -318 198 -587 360 -598 360 -34 0 -52 -11 -68
-42 -32 -63 -39 -58 586 -447 318 -198 604 -373 636 -389 143 -72 325 -109
488 -98 120 7 108 4 791 195 297 83 578 158 625 167 70 13 177 17 588 21 l502
5 20 25 c19 25 20 41 20 518 0 477 -1 493 -20 518 l-20 25 -277 4 c-266 4
-281 5 -355 30 -42 14 -99 39 -125 55 -60 37 -82 44 -108 33z"/>
</g>
</svg>
